<svg height="512pt" viewBox="0 -15 512.0014 512" width="512pt" xmlns="http://www.w3.org/2000/svg"><path d="m455.175781 232.875c-1.210937-15.070312-11.097656-28.054688-25.328125-33.265625-14.230468-5.210937-30.214844-1.699219-40.945312 8.996094l-6.308594 6.289062c-10.925781 10.890625-28.699219 10.902344-39.613281.027344-2.320313-2.3125-4.140625-4.9375-5.472657-7.734375-17.492187 18.625-35.550781 36.71875-54.160156 54.230469l-32.804687-32.804688c43.21875-45.90625 89.921875-88.492187 139.664062-127.367187-1.980469-7.550782-6.210937-14.394532-12.246093-19.570313-42.6875-36.59375-97.355469-55.636719-153.941407-53.621093-56.882812 2.023437-110.355469 25.207031-150.5625 65.28125-87.421875 87.132812-87.503906 228.832031-.183593 315.867187 87.320312 87.03125 229.484374 86.953125 316.90625-.1875 46.566406-46.410156 70.253906-110.609375 64.996093-176.140625zm0 0" fill="#fff"/><path d="m107.054688 409.203125c-87.320313-87.035156-87.238282-228.734375.183593-315.867187 38.136719-38.011719 88.210938-60.808594 141.808594-64.789063-8.277344-.617187-16.632813-.792969-25.027344-.492187-56.886719 2.023437-110.355469 25.207031-150.5625 65.28125-87.421875 87.132812-87.503906 228.832031-.183593 315.867187 47.917968 47.757813 112.347656 69.28125 175.191406 64.582031-51.589844-3.847656-102.066406-25.371094-141.410156-64.582031zm0 0" fill="#e1eaf8"/><path d="m312.003906 90.023438c13.164063 11.652343 14.34375 31.75 2.632813 44.886718-11.707031 13.136719-31.867188 14.335938-45.03125 2.679688-13.164063-11.65625-14.347657-31.757813-2.636719-44.894532 11.710938-13.136718 31.871094-14.332031 45.035156-2.671874zm0 0" fill="#76ffd9"/><path d="m174.082031 80.753906c17.585938-1.042968 32.675781 12.316406 33.707031 29.851563 1.027344 17.527343-12.394531 32.589843-29.980468 33.632812-17.589844 1.046875-32.675782-12.316406-33.707032-29.847656-1.035156-17.53125 12.390626-32.589844 29.980469-33.636719zm0 0" fill="#5de0bf"/><path d="m69.871094 171.433594c11.707031-13.136719 31.871094-14.339844 45.035156-2.679688 13.167969 11.65625 14.347656 31.753906 2.632812 44.890625-11.707031 13.136719-31.871093 14.335938-45.035156 2.679688-13.164062-11.65625-14.34375-31.753907-2.632812-44.890625zm0 0" fill="#ffc843"/><path d="m60.417969 308.933594c-1.027344-17.53125 12.390625-32.589844 29.980469-33.636719 17.589843-1.046875 32.679687 12.316406 33.707031 29.847656 1.03125 17.53125-12.394531 32.589844-29.980469 33.636719-17.589844 1.046875-32.675781-12.316406-33.707031-29.847656zm0 0" fill="#ffb400"/><path d="m151.257812 412.710938c-13.160156-11.65625-14.34375-31.753907-2.632812-44.890626 11.707031-13.136718 31.871094-14.339843 45.035156-2.679687 13.167969 11.660156 14.34375 31.753906 2.636719 44.890625-11.710937 13.136719-31.875 14.335938-45.039063 2.679688zm0 0" fill="#ff8025"/><path d="m289.183594 421.976562c-17.589844 1.042969-32.679688-12.316406-33.710938-29.851562-1.027344-17.53125 12.398438-32.589844 29.984375-33.636719 17.589844-1.042969 32.679688 12.320313 33.707031 29.851563 1.03125 17.53125-12.394531 32.589844-29.980468 33.636718zm0 0" fill="#e1eaf8"/><path d="m393.394531 331.296875c-11.710937 13.136719-31.871093 14.335937-45.039062 2.679687-13.164063-11.660156-14.339844-31.757812-2.632813-44.894531 11.710938-13.132812 31.871094-14.332031 45.035156-2.675781 13.167969 11.652344 14.34375 31.757812 2.636719 44.890625zm0 0" fill="#c1c8d2"/><path d="m444.335938 51.148438 38.84375-38.835938c5.339843-5.339844 13.425781-5.996094 17.964843-1.457031 4.539063 4.539062 3.886719 12.625-1.453125 17.964843l-38.847656 38.835938zm0 0" fill="#76ffd9"/><path d="m444.335938 51.148438-36.746094 36.742187 16.511718 16.507813h-.003906l36.75-36.742188zm0 0" fill="#e1eaf8"/><path d="m251.335938 227.710938c-.410157-.410157-1.019532-.550782-1.589844-.375-11.652344 3.609374-22.230469 12.855468-32.335938 28.261718-8.710937 13.277344-16.015625 29.527344-22.457031 43.863282-5.15625 11.46875-10.027344 22.304687-14.964844 30.324218-.398437.640625-.316406 1.457032.199219 1.972656.515625.515626 1.332031.601563 1.976562.203126 8.019532-4.941407 18.855469-9.8125 30.328126-14.964844 14.335937-6.441406 30.589843-13.746094 43.867187-22.453125 15.410156-10.105469 24.65625-20.679688 28.269531-32.332031.175782-.570313.035156-1.179688-.375-1.589844zm0 0" fill="#ffc843"/><path d="m243.964844 251.714844c-8.710938 13.28125-16.011719 29.527344-22.453125 43.863281-3.546875 7.882813-6.953125 15.4375-10.339844 22.011719-10.980469 4.933594-21.300781 9.621094-29.007813 14.371094-.644531.398437-1.460937.3125-1.976562-.203126-.515625-.515624-.597656-1.328124-.203125-1.972656 4.941406-8.019531 9.8125-18.855468 14.96875-30.324218 6.441406-14.335938 13.746094-30.585938 22.457031-43.863282 10.105469-15.40625 20.683594-24.652344 32.335938-28.261718.570312-.175782 1.179687-.035157 1.589844.375l6.769531 6.769531c-4.847657 4.507812-9.542969 10.230469-14.140625 17.234375zm0 0" fill="#ffb400"/><path d="m407.589844 87.886719c-55.964844 42.164062-108.222656 88.976562-156.21875 139.859375l32.847656 32.84375c50.886719-47.992188 97.710938-100.242188 139.882812-156.191406zm0 0" fill="#76ffd9"/><path d="m265.316406 243.386719-14.777344-14.773438c48.222657-51.214843 100.765626-98.320312 157.050782-140.726562l14.777344 14.773437c-56.285157 42.40625-108.828126 89.511719-157.050782 140.726563zm0 0" fill="#5de0bf"/><path d="m289.515625 189.046875 33.40625 33.402344c-6.308594 6.496093-12.683594 12.917969-19.136719 19.269531l-33.546875-33.539062c6.355469-6.449219 12.78125-12.824219 19.277344-19.132813zm0 0" fill="#fff"/><path d="m359.941406 182.648438c-6.03125 6.769531-12.125 13.472656-18.300781 20.109374l-32.433594-32.425781c6.640625-6.171875 13.34375-12.269531 20.117188-18.296875zm0 0" fill="#fff"/><path d="m506.6875 5.316406c-3.429688-3.429687-8.113281-5.316406-13.191406-5.316406-5.773438 0-11.558594 2.464844-15.859375 6.769531l-38.839844 38.832031s-.003906.003907-.003906.003907l-36.367188 36.367187c-2.96875 2.238282-5.921875 4.496094-8.871093 6.761719-2.671876-4.890625-6.195313-9.320313-10.496094-13.007813-44.183594-37.875-100.777344-57.59375-159.316406-55.503906-58.875 2.097656-114.207032 26.089844-155.820313 67.5625-43.800781 43.65625-67.921875 101.777344-67.921875 163.648438 0 61.777344 24.058594 119.777344 67.742188 163.320312 45.152343 45 104.46875 67.5 163.816406 67.5 59.429687 0 118.882812-22.566406 164.15625-67.6875 17.136718-17.082031 31.417968-36.613281 42.449218-58.046875 1.980469-3.847656.464844-8.574219-3.382812-10.554687-3.84375-1.976563-8.574219-.464844-10.554688 3.382812-10.28125 19.980469-23.597656 38.191406-39.578124 54.121094-84.371094 84.089844-221.570313 84.175781-305.84375.183594-40.710938-40.578125-63.132813-94.636719-63.132813-152.21875 0-57.675782 22.488281-111.851563 63.320313-152.546875 38.796874-38.671875 90.402343-61.046875 145.304687-63 54.609375-1.933594 107.371094 16.429687 148.5625 51.738281 3.511719 3.011719 6.265625 6.753906 8.109375 10.90625-46.988281 37.078125-91.523438 77.71875-132.71875 121.125-.277344.058594-.550781.109375-.824219.195312-13.460937 4.167969-25.421875 14.457032-36.566406 31.449219-9.0625 13.8125-16.496094 30.351563-23.074219 44.992188-5.042968 11.214843-9.804687 21.804687-14.460937 29.363281-2.320313 3.75-1.78125 8.535156 1.320312 11.644531 1.820313 1.816407 4.214844 2.757813 6.640625 2.757813 1.714844 0 3.441406-.46875 4.988282-1.425782 7.585937-4.671874 18.195312-9.441406 29.429687-14.488281 4.648437-2.085937 9.453125-4.246093 14.363281-6.546875 3.921875-1.835937 5.609375-6.5 3.773438-10.421875-1.835938-3.917969-6.503906-5.609375-10.421875-3.773437-4.796875 2.25-9.546875 4.382812-14.140625 6.449218-4.527344 2.03125-8.960938 4.023438-13.183594 6.003907 1.976562-4.21875 3.96875-8.648438 6.003906-13.183594 6.324219-14.0625 13.484375-30 21.863282-42.773437 7.644531-11.65625 15.382812-19.308594 23.527343-23.253907l1.378907 1.382813-6.515626 6.515625c-3.058593 3.0625-3.058593 8.023437 0 11.085937 1.53125 1.527344 3.535157 2.292969 5.542969 2.292969 2.003907 0 4.011719-.765625 5.539063-2.292969l6.519531-6.519531 2.898437 2.898437-14.214843 14.210938c-3.0625 3.0625-3.0625 8.023438 0 11.082031 1.527343 1.53125 3.53125 2.296875 5.539062 2.296875 2.007813 0 4.011719-.765625 5.542969-2.292968l14.214844-14.214844 1.382812 1.382812c-3.941406 8.136719-11.59375 15.871094-23.253906 23.515625-3.621094 2.375-4.628906 7.230469-2.257812 10.851563 2.375 3.621094 7.234374 4.632812 10.851562 2.253906 16.996094-11.140625 27.285156-23.101562 31.453125-36.550781.085937-.28125.144531-.5625.203125-.84375 15.074219-14.304688 29.855469-29.054688 44.265625-44.152344.289063.308594.566406.625.871094.925781 13.960937 13.914063 36.695312 13.90625 50.675781-.027344l6.308594-6.289062c8.542968-8.515625 21.386718-11.339844 32.71875-7.1875 11.316406 4.144531 19.25 14.558594 20.210937 26.535156 2.195313 27.339844-.761719 54.441406-8.777343 80.5625-1.269532 4.136719 1.058593 8.519532 5.195312 9.789063 4.128906 1.265625 8.519531-1.054688 9.789062-5.191407 8.601563-28.019531 11.769532-57.09375 9.414063-86.414062-1.449219-18.054688-13.398437-33.757812-30.441406-39.996094-17.023438-6.238281-36.328125-2-49.175781 10.804688l-6.304688 6.289062c-7.875 7.851563-20.683594 7.863282-28.550781.023438-.40625-.40625-.785157-.828125-1.152344-1.261719 11.171875-12 22.101563-24.203125 32.726563-36.566406 2.824218-3.28125 2.449218-8.230469-.835938-11.050781-3.28125-2.824219-8.230469-2.449219-11.050781.832031-2.84375 3.3125-5.722657 6.605469-8.609375 9.894531l-10.433594 11.730469c-2.566406 2.84375-5.15625 5.671875-7.746094 8.496093l-10.679687 11.488282c-2.628907 2.785156-44.167969 44.632812-47.234375 47.554687l-22.019532-22.019531c2.921876-3.0625 25.25-25.710938 27.980469-28.394531l11.25-10.917969c2.761719-2.648438 5.539063-5.289062 8.328125-7.914062l11.488282-10.675782c2.824218-2.59375 5.660156-5.167968 8.507812-7.734375l11.726562-10.441406c21.4375-18.824219 43.511719-36.894531 66.121094-54.128906l6.851563 6.847656c-8.222657 10.785156-16.695313 21.523437-25.246094 32.003906-2.738281 3.351563-2.238281 8.289063 1.117187 11.023438 3.351563 2.738281 8.289063 2.238281 11.027344-1.113281 9.992188-12.246094 19.875-24.84375 29.386719-37.453126l75.21875-75.207031c3.898437-3.894531 6.277344-8.933593 6.699219-14.1875.457031-5.65625-1.453125-11.070312-5.246094-14.859375zm-10.375 13.589844c-.125 1.527344-.914062 3.121094-2.164062 4.371094l-70.046876 70.039062-5.425781-5.425781 70.042969-70.035156c1.367188-1.367188 3.152344-2.179688 4.777344-2.179688.632812 0 1.507812.125 2.109375.726563.734375.730468.757812 1.882812.707031 2.503906zm0 0" fill="#434c54"/></svg>